<?xml version="1.0" encoding="UTF-8" standalone="no"?>
<!-- Created with Inkscape (http://www.inkscape.org/) -->

<svg
   width="127.81121mm"
   height="119.52195mm"
   viewBox="0 0 127.81121 119.52195"
   version="1.1"
   id="svg1"
   xml:space="preserve"
   xmlns="http://www.w3.org/2000/svg"
   xmlns:svg="http://www.w3.org/2000/svg"><defs
     id="defs1" /><g
     id="layer1"
     transform="translate(-35.361796,196.3996)"><path
       style="fill:#000000"
       d="m 43.443701,-77.209512 c -0.7276,-0.202925 -1.39864,-0.374209 -1.4912,-0.380631 -0.0926,-0.0064 -0.88195,-0.48824 -1.7542,-1.070706 -1.80483,-1.205217 -3.18955,-3.040765 -4.09127,-5.423262 l -0.60083,-1.5875 -0.0722,-38.033849 -0.0722,-38.03386 h 63.90561 63.905609 l -0.0688,37.7749 -0.0688,37.774902 -0.84683,1.714162 c -1.48341,3.002728 -4.75215,5.749782 -8.26221,6.943587 l -1.73887,0.591408 -53.710419,0.0499 c -45.239,0.04203 -53.91907,-0.0083 -55.03333,-0.319053 z m 29.2674,-18.047465 c 0.42573,-0.251482 1.00964,-0.943917 1.2976,-1.538743 0.4685,-0.967799 0.52197,-1.622104 0.50861,-6.22349 -0.0164,-5.63335 -0.19819,-6.61193 -1.39329,-7.49845 -0.70675,-0.52427 -1.07077,-0.55395 -6.7933,-0.55395 -8.52611,0 -8.19301,-0.33108 -8.19874,8.14908 -0.006,8.444452 -0.34958,8.096853 8.02506,8.112201 5.01439,0.0092 5.88254,-0.04997 6.55406,-0.446648 z m 31.901259,-0.05915 c 1.20886,-0.737092 1.40235,-1.779277 1.40235,-7.553403 0,-5.73158 -0.18362,-6.73103 -1.3954,-7.59536 -0.8091,-0.57711 -1.11533,-0.61098 -6.274569,-0.69399 -6.03707,-0.0971 -7.00384,0.0593 -8.05029,1.30298 l -0.68096,0.80927 v 5.94596 c 0,8.671614 -0.39195,8.275488 8.20208,8.289353 5.440449,0.0088 6.025779,-0.0347 6.796789,-0.50481 z m 32.2899,-0.349516 0.7331,-0.733618 v -6.454959 -6.45497 l -0.64561,-0.68722 c -1.03917,-1.10615 -2.07331,-1.25706 -7.96589,-1.16247 -7.90825,0.12695 -7.73176,-0.0717 -7.6086,8.56122 0.0749,5.247528 0.11949,5.696454 0.63519,6.390249 1.01686,1.368005 1.32586,1.420132 7.97264,1.344925 l 6.14606,-0.06954 z M 72.781021,-131.13442 c 1.47878,-0.97013 1.73896,-2.13182 1.74541,-7.79308 0.006,-5.57371 -0.15563,-6.40103 -1.45302,-7.42156 -0.69876,-0.54965 -0.97672,-0.57359 -6.65978,-0.57359 -8.70953,0 -8.34968,-0.36973 -8.23314,8.45932 0.0793,6.00353 0.085,6.05667 0.72676,6.73926 0.35578,0.37841 1.01062,0.79801 1.45521,0.93245 0.44458,0.13444 3.25475,0.22113 6.24482,0.19264 4.76574,-0.0454 5.52747,-0.11147 6.17374,-0.53544 z m 31.095189,0.27027 c 0.49569,-0.17368 1.15053,-0.6516 1.45521,-1.06204 0.51262,-0.69058 0.56046,-1.15442 0.64122,-6.21771 0.0971,-6.08729 -0.0578,-7.05007 -1.30298,-8.09779 l -0.80927,-0.68096 h -5.945959 c -8.6781,0 -8.30094,-0.37716 -8.30094,8.30094 v 5.94596 l 0.6834,0.81217 c 0.37586,0.44669 1.06047,0.92134 1.52135,1.05477 1.26947,0.36753 10.978289,0.32298 12.057969,-0.0553 z m 31.85469,0.0634 c 0.67595,-0.1877 1.1747,-0.5561 1.52036,-1.123 0.46881,-0.76886 0.5145,-1.36676 0.51541,-6.74378 0.001,-8.62308 0.37075,-8.25509 -8.28457,-8.25509 -5.68305,0 -5.96102,0.0239 -6.65978,0.57359 -1.30416,1.02585 -1.45883,1.83467 -1.45883,7.6285 0,3.88419 0.0968,5.54035 0.36078,6.17212 0.36498,0.87352 1.21635,1.5963 2.16379,1.83696 1.02402,0.26012 10.8514,0.18602 11.84284,-0.0893 z M 35.378501,-177.94504 c 0.005,-8.44246 0.20322,-10.17223 1.44677,-12.62626 0.8707,-1.71824 2.53229,-3.54313 4.01982,-4.41488 2.09206,-1.22603 3.41648,-1.40702 10.3209,-1.41041 l 6.39938,-0.003 0.0829,6.54844 c 0.0794,6.26992 0.10841,6.58944 0.68239,7.51246 1.29717,2.08594 4.32451,2.43754 6.05843,0.70362 0.53469,-0.53469 1.01915,-1.35173 1.15899,-1.95463 0.13215,-0.56976 0.24311,-3.68507 0.24658,-6.92291 l 0.006,-5.88698 h 31.73323 31.733229 l 0.0829,6.54844 c 0.0794,6.26992 0.10841,6.58944 0.68239,7.51246 1.49922,2.41086 5.23932,2.41086 6.73854,0 0.57398,-0.92302 0.60301,-1.24254 0.68239,-7.51246 l 0.0829,-6.54844 6.39938,0.005 c 4.52865,0.003 6.92202,0.11535 8.18723,0.38346 4.05088,0.85842 7.99893,3.86184 9.74139,7.41061 l 0.90617,1.84553 0.0832,8.27478 0.0832,8.27478 H 99.155211 35.373621 Z"
       id="path2" /></g></svg>
