<?xml version="1.0" encoding="UTF-8" standalone="no"?>
<!-- Created with Inkscape (http://www.inkscape.org/) -->

<svg
   width="135.21758mm"
   height="135.19849mm"
   viewBox="0 0 135.21758 135.19849"
   version="1.1"
   id="svg1"
   xml:space="preserve"
   xmlns="http://www.w3.org/2000/svg"
   xmlns:svg="http://www.w3.org/2000/svg"><defs
     id="defs1" /><g
     id="layer1"
     transform="translate(-103.57662,-208.62577)"><path
       style="fill:#ffedd8;fill-opacity:1"
       d="m 103.57662,343.82205 c 0,-0.37687 13.89632,-41.85053 14.0226,-41.85053 0.074,0 6.4291,6.29546 14.12253,13.98992 l 13.98806,13.98992 -21.0666,7.02282 c -11.58662,3.86254 -21.06659,6.94409 -21.06659,6.84787 z m 32.14699,-32.06083 -15.34474,-15.34645 37.17303,-37.17375 37.17304,-37.17374 15.34595,15.34595 15.34595,15.34595 -37.17425,37.17424 -37.17424,37.17425 z m 78.37196,-78.52595 -15.2887,-15.29041 3.55569,-3.49567 c 2.97932,-2.92904 3.87084,-3.64459 5.49997,-4.41441 3.98953,-1.88518 8.10216,-1.87862 12.09,0.0193 1.8896,0.89931 2.50429,1.44419 9.18528,8.14219 7.55152,7.57074 8.23674,8.44711 9.21877,11.79045 0.87584,2.98179 0.40135,7.35811 -1.10424,10.18478 -0.61582,1.15617 -7.26267,8.35418 -7.71449,8.35418 -0.0845,0 -7.03349,-6.88068 -15.44228,-15.29041 z"
       id="path4" /></g></svg>
