<?xml version="1.0" encoding="UTF-8" standalone="no"?>
<!-- Created with Inkscape (http://www.inkscape.org/) -->

<svg
   width="200.00003mm"
   height="200.00002mm"
   viewBox="0 0 200.00003 200.00002"
   version="1.1"
   id="svg1"
   xml:space="preserve"
   sodipodi:docname="edit.svg"
   inkscape:version="1.4 (86a8ad7, 2024-10-11)"
   xmlns:inkscape="http://www.inkscape.org/namespaces/inkscape"
   xmlns:sodipodi="http://sodipodi.sourceforge.net/DTD/sodipodi-0.dtd"
   xmlns="http://www.w3.org/2000/svg"
   xmlns:svg="http://www.w3.org/2000/svg"><sodipodi:namedview
     id="namedview1"
     pagecolor="#ffffff"
     bordercolor="#000000"
     borderopacity="0.25"
     inkscape:showpageshadow="2"
     inkscape:pageopacity="0.0"
     inkscape:pagecheckerboard="0"
     inkscape:deskcolor="#d1d1d1"
     inkscape:document-units="mm"
     showgrid="true"
     inkscape:zoom="1.078177"
     inkscape:cx="377.95278"
     inkscape:cy="377.95278"
     inkscape:window-width="1920"
     inkscape:window-height="1017"
     inkscape:window-x="-8"
     inkscape:window-y="-8"
     inkscape:window-maximized="1"
     inkscape:current-layer="layer1"><inkscape:grid
       id="grid1"
       units="mm"
       originx="-259.99997"
       originy="100"
       spacingx="0.99999998"
       spacingy="1"
       empcolor="#0099e5"
       empopacity="0.30196078"
       color="#0099e5"
       opacity="0.14901961"
       empspacing="5"
       enabled="true"
       visible="true" /><inkscape:page
       x="0"
       y="0"
       width="200.00003"
       height="200.00002"
       id="page2"
       margin="0"
       bleed="0" /></sodipodi:namedview><defs
     id="defs1" /><g
     inkscape:label="Слой 1"
     inkscape:groupmode="layer"
     id="layer1"
     transform="translate(-259.99998,99.999999)"><path
       style="fill:#ffa931;fill-opacity:0;stroke-width:1.053;stroke-miterlimit:16.3"
       id="path1"
       sodipodi:type="arc"
       sodipodi:cx="360"
       sodipodi:cy="1.1744323e-06"
       sodipodi:rx="100.00001"
       sodipodi:ry="100"
       sodipodi:start="1.0419472"
       sodipodi:end="1.0419133"
       sodipodi:open="true"
       sodipodi:arc-type="arc"
       d="M 410.45401,86.338832 A 100.00001,100 0 0 1 273.66159,50.454735 100.00001,100 0 0 1 309.54453,-86.337974 100.00001,100 0 0 1 446.33755,-50.456196 100.00001,100 0 0 1 410.45693,86.337121" /><path
       style="fill:#ffedd8;fill-opacity:1"
       d="m 292.39121,67.597053 c 0,-0.37687 13.89632,-41.85053 14.0226,-41.85053 0.074,0 6.4291,6.29546 14.12253,13.98992 l 13.98806,13.98992 -21.0666,7.02282 c -11.58662,3.86254 -21.06659,6.94409 -21.06659,6.84787 z m 32.14699,-32.06083 -15.34474,-15.346451 37.17303,-37.17375 37.17304,-37.17374 15.34595,15.34595 15.34595,15.34595 -37.17425,37.17424 -37.17424,37.174251 z m 78.37196,-78.525951 -15.2887,-15.29041 3.55569,-3.49567 c 2.97932,-2.92904 3.87084,-3.644589 5.49997,-4.414409 3.98953,-1.88518 8.10216,-1.87862 12.09,0.0193 1.8896,0.89931 2.50429,1.444189 9.18528,8.142189 7.55152,7.57074 8.23674,8.44711 9.21877,11.79045 0.87584,2.98179 0.40135,7.35811 -1.10424,10.18478 -0.61582,1.15617 -7.26267,8.35418 -7.71449,8.35418 -0.0845,0 -7.03349,-6.88068 -15.44228,-15.29041 z"
       id="path4" /></g></svg>
