<?xml version="1.0" encoding="UTF-8" standalone="no"?>
<!-- Created with Inkscape (http://www.inkscape.org/) -->

<svg
   width="135.39134mm"
   height="135.39725mm"
   viewBox="0 0 135.39134 135.39725"
   version="1.1"
   id="svg1"
   xml:space="preserve"
   xmlns="http://www.w3.org/2000/svg"
   xmlns:svg="http://www.w3.org/2000/svg"><defs
     id="defs1" /><g
     id="layer1"
     transform="translate(167.6156,44.131351)"><path
       style="fill:#000000"
       d="m -155.88677,90.998976 c -0.7276,-0.13675 -2.29155,-0.71555 -3.47543,-1.28622 -2.41302,-1.16316 -4.84344,-3.33544 -6.06617,-5.42189 -1.92993,-3.29317 -2.65707,-7.43184 -1.8819,-10.711155 0.50346,-2.129828 7.59698,-18.884159 7.8737,-18.597041 0.26636,0.276372 17.17584,32.675986 17.17584,32.909976 0,0.32913 -6.45008,2.83394 -8.05224,3.12699 -1.83235,0.33515 -3.71781,0.32816 -5.5738,-0.0207 z m 20.73089,-6.90208 c -0.17716,-0.32742 -4.82539,-9.224488 -10.32939,-19.77126 l -10.00728,-19.17595 4.53906,-10.65582 c 2.49648,-5.860701 4.61915,-10.655819 4.71704,-10.655819 0.35559,0 29.1898,53.208209 28.95357,53.428459 -0.25448,0.23726 -17.07301,7.4257 -17.37364,7.4257 -0.0975,0 -0.32221,-0.26789 -0.49936,-0.59531 z m 9.22607,-39.977255 -16.33227,-29.946437 2.49733,-5.8765168 c 1.37353,-3.232084 2.61598,-6.087885 2.76101,-6.346224 0.24718,-0.440328 0.2752,-0.436609 0.44789,0.05946 0.61849,1.77669 2.48135,5.751891 3.85635,8.2291628 4.88199,8.795693 11.34721,17.078541 20.32334,26.037035 10.85667,10.835336 22.462041,19.217135 32.031651,23.134368 1.17427,0.480679 2.19636,0.935276 2.2713,1.010214 0.1014,0.101405 -19.30635,8.508363 -30.724161,13.308941 l -0.80018,0.336434 z m 81.379908,25.205525 c -1.438915,-0.712254 -2.196248,-2.193528 -2.196248,-4.295657 v -1.503965 h -1.503964 c -2.119743,0 -3.596523,-0.760922 -4.300965,-2.216105 -0.692507,-1.430529 -0.688602,-2.351258 0.01529,-3.603659 0.797197,-1.418421 2.174873,-2.117735 4.172021,-2.117735 h 1.617621 v -1.617622 c 0,-1.997147 0.699314,-3.374823 2.117736,-4.172021 2.888708,-1.623544 5.819764,0.534887 5.819764,4.285678 v 1.503965 h 1.730332 c 2.191543,0 3.481612,0.619097 4.291015,2.059237 0.736411,1.310266 0.748321,2.215828 0.04816,3.662157 -0.721678,1.490788 -2.172655,2.216105 -4.433256,2.216105 h -1.636256 v 1.503965 c 0,2.119742 -0.760923,3.596523 -2.216106,4.300965 -1.417957,0.686421 -2.129864,0.685349 -3.525146,-0.0053 z M -70.55865,54.221263 c -21.369219,-4.518898 -55.45817,-38.502581 -59.92575,-59.7406838 -0.5164,-2.454911 -0.50951,-5.8831822 0.0155,-7.7023212 0.88272,-3.058636 3.38766,-5.563573 6.4463,-6.446298 5.76745,-1.664492 15.08143,1.45281 25.726141,8.610293 l 2.4055,1.6174562 -4.637931,4.666774 c -2.55086,2.566725 -4.82827,5.04781406 -5.06092,5.51353002 -1.56271,3.12821498 1.72415,6.61271398 5.04988,5.35352798 0.661581,-0.25049 10.931281,-10.182258 10.931281,-10.571586 0,-0.0857 -1.36922,-1.211667 -3.04271,-2.50215 -1.67349,-1.290484 -3.0427,-2.404937 -3.0427,-2.476564 0,-0.07163 1.31103,-1.4719082 2.9134,-3.1117392 4.14109,-4.237882 5.23548,-6.773525 4.95612,-11.483036 -0.1925,-3.245053 -1.14223,-5.473985 -3.22302,-7.564103 -2.15689,-2.166547 -3.5025,-2.627641 -6.99814,-2.398021 -2.190991,0.143921 -2.665251,0.0966 -3.608611,-0.360071 -1.20965,-0.585582 -2.24184,-2.115321 -2.24184,-3.322481 0,-1.294189 0.9621,-2.872547 2.16209,-3.546979 1.37292,-0.771619 5.388971,-1.047656 7.954341,-0.546729 8.64317,1.687706 14.50614,10.168246 13.87527,20.069991 -0.3645,5.721155 -2.2863,9.725757 -7.04921,14.6889952 l -2.50439,2.609726 1.44318,1.231189 c 4.81232,4.10543702 10.78361,10.076053 14.850949,14.8492758 l 1.23119,1.444862 2.60973,-2.504391 c 4.96324,-4.7629088 8.96784,-6.6847088 14.688993,-7.0492178 7.89984,-0.503318 15.221632,3.224483 18.424364,9.3805398 1.514475,2.911011 1.979413,5.068129 1.837611,8.525745 -0.14234,3.470751 -0.672494,4.694688 -2.394638,5.528363 -1.463662,0.708547 -2.371028,0.703384 -3.659578,-0.02082 -1.656826,-0.931188 -2.116098,-2.196344 -1.914028,-5.272569 0.22962,-3.495647 -0.231474,-4.841258 -2.398021,-6.998139 -2.090118,-2.080793 -4.31905,-3.030529 -7.564103,-3.223021 -4.685792,-0.277956 -7.25462,0.837913 -11.53175,5.009262 -1.61304,1.573142 -2.9914,2.860258 -3.06303,2.860258 -0.0716,0 -1.18607,-1.369219 -2.47656,-3.042708 -1.29048,-1.67349 -2.41361,-3.042708 -2.49584,-3.042708 -0.35858,0 -10.055629,10.005202 -10.436949,10.768631 -1.6138,3.230884 1.98182,6.826473 5.21258,5.212534 0.46572,-0.23265 2.946809,-2.510067 5.513529,-5.060926 l 4.66678,-4.637926 1.61745,2.405503 c 7.15749,10.644704 10.274788,19.958689 8.610297,25.726139 -0.882727,3.058636 -3.387667,5.563573 -6.446297,6.446299 -1.59375,0.459956 -5.49031,0.515728 -7.42646,0.106295 z m 28.125415,-58.9794258 c -0.793356,-0.392707 -1.266194,-0.870457 -1.653646,-1.670827 -0.682391,-1.409631 -0.681914,-2.086445 0.0025,-3.500189 0.591539,-1.2219572 2.169611,-2.2161062 3.517755,-2.2161062 1.874278,0 3.874674,2.048965 3.874674,3.9687502 0,1.248209 -1.022248,2.881252 -2.170194,3.466891 -1.266928,0.646338 -2.192701,0.63376 -3.571057,-0.04852 z m -25.422375,-2.092331 c -0.86526,-0.392715 -1.25512,-0.782572 -1.64783,-1.647835 -0.28293,-0.623378 -0.51442,-1.431071 -0.51442,-1.7948732 0,-1.626657 1.05691,-2.844588 11.40331,-13.14058 8.921635,-8.878165 10.574259,-10.409567 11.537671,-10.691359 3.026511,-0.885236 5.733322,1.821575 4.848086,4.848086 -0.281792,0.963412 -1.813193,2.616037 -10.691359,11.537668 -10.295988,10.3464012 -11.513928,11.4033142 -13.140578,11.4033142 -0.3638,0 -1.1715,-0.23149 -1.79488,-0.514421 z m -74.06095,-16.9576682 c -1.43892,-0.712255 -2.19625,-2.193528 -2.19625,-4.295657 v -1.503965 h -1.50397 c -2.11974,0 -3.59652,-0.760923 -4.30096,-2.216106 -0.6849,-1.414814 -0.6849,-2.090474 0,-3.505288 0.70444,-1.455183 2.18122,-2.216106 4.30096,-2.216106 h 1.50397 v -1.636256 c 0,-2.260601 0.72532,-3.711578 2.2161,-4.433256 1.40783,-0.681519 2.09101,-0.684643 3.47249,-0.01588 1.55305,0.751818 2.24891,2.093307 2.24891,4.335479 v 1.749913 h 1.44985 c 2.11094,0 3.45608,0.625088 4.24611,1.973174 0.81131,1.384394 0.82927,2.537787 0.0608,3.905089 -0.79071,1.406888 -2.10816,2.059237 -4.15872,2.059237 h -1.59804 v 1.617622 c 0,2.02906 -0.76035,3.511271 -2.1702,4.230519 -1.26692,0.646338 -2.1927,0.63376 -3.57105,-0.04852 z m 76.05209,-13.002698 c -1.04756,-0.607174 -2.04835,-2.2587 -2.04835,-3.380257 0,-1.261425 1.027,-2.848042 2.21611,-3.423679 1.35771,-0.657255 1.94,-0.677551 3.34221,-0.116497 1.24918,0.499823 2.37918,2.165873 2.37918,3.507817 0,1.342741 -0.92547,2.86424 -2.10968,3.468382 -1.3415,0.684382 -2.53281,0.666805 -3.77947,-0.05577 z"
       id="path3" /></g></svg>
