<?xml version="1.0" encoding="UTF-8" standalone="no"?>
<!-- Created with Inkscape (http://www.inkscape.org/) -->

<svg
   width="135.33205mm"
   height="107.76679mm"
   viewBox="0 0 135.33205 107.76679"
   version="1.1"
   id="svg1"
   xml:space="preserve"
   xmlns="http://www.w3.org/2000/svg"
   xmlns:svg="http://www.w3.org/2000/svg"><defs
     id="defs1" /><g
     id="layer1"
     transform="translate(-178.73125,-123.16242)"><path
       style="fill:#000000;fill-opacity:1"
       d="m 201.97524,230.61516 c -1.45504,-0.32491 -3.31705,-2.10728 -3.72091,-3.56176 -0.18969,-0.68313 -0.28343,-7.8242 -0.28442,-21.666 l -0.001,-20.64701 24.06217,-19.83424 c 13.23421,-10.90883 24.19467,-19.83423 24.3566,-19.83423 0.16193,0 11.12238,8.9254 24.35659,19.83423 l 24.06217,19.83424 -0.001,20.64701 c -9.9e-4,13.8418 -0.0947,20.98287 -0.28442,21.666 -0.43619,1.57088 -2.24428,3.22125 -3.9237,3.58141 -0.92207,0.19776 -6.62325,0.2944 -17.36698,0.2944 h -15.99523 v -16.13958 -16.13959 h -10.84793 -10.84792 v 16.13959 16.13958 l -16.20573,-0.0283 c -9.42004,-0.0165 -16.68833,-0.1361 -17.35829,-0.28571 z m -16.51901,-44.32038 c -0.73684,-0.19142 -6.50723,-7.22917 -6.68455,-8.1527 -0.0841,-0.43808 -0.0327,-1.11263 0.11415,-1.499 0.34113,-0.89724 60.84895,-51.37782 62.81049,-52.40165 2.5943,-1.35411 6.31818,-1.44243 9.09154,-0.21564 0.60312,0.26679 5.90212,4.5023 11.77556,9.41225 l 10.67897,8.92718 0.0698,-8.64953 c 0.0779,-9.65184 0.0856,-9.69419 1.87765,-10.22335 0.62707,-0.18516 3.93749,-0.25503 9.49016,-0.2003 l 8.52717,0.0841 0.73325,0.73351 0.73325,0.73351 0.0716,17.72531 0.0716,17.7253 9.40634,7.83406 c 5.75345,4.79176 9.50847,8.10274 9.66937,8.52593 0.49665,1.3063 0.0356,2.19119 -3.0792,5.9103 -2.55201,3.04709 -3.18095,3.65254 -3.94266,3.79544 -0.49845,0.0935 -1.15736,0.0903 -1.46423,-0.007 -0.30688,-0.0974 -13.6751,-11.12199 -29.70715,-24.49909 -16.03206,-13.3771 -29.22254,-24.322 -29.31215,-24.322 -0.0896,0 -13.26924,10.93585 -29.28805,24.30189 -16.0188,13.36604 -29.32688,24.37933 -29.57349,24.47396 -0.4872,0.18696 -1.32133,0.18198 -2.06941,-0.0124 z"
       id="path1" /></g></svg>
