<?xml version="1.0" encoding="UTF-8" standalone="no"?>
<!-- Created with Inkscape (http://www.inkscape.org/) -->

<svg
   width="200.00003mm"
   height="200.00002mm"
   viewBox="0 0 200.00003 200.00002"
   version="1.1"
   id="svg1"
   xml:space="preserve"
   xmlns="http://www.w3.org/2000/svg"
   xmlns:svg="http://www.w3.org/2000/svg"><defs
     id="defs1" /><g
     id="layer1"
     transform="translate(-259.99998,99.999999)"><path
       style="fill:#37c3ea;fill-opacity:0;stroke-width:1.053;stroke-miterlimit:16.3"
       id="path1"
       d="M 410.45401,86.338832 A 100.00001,100 0 0 1 273.66159,50.454735 100.00001,100 0 0 1 309.54453,-86.337974 100.00001,100 0 0 1 446.33755,-50.456196 100.00001,100 0 0 1 410.45693,86.337121" /><path
       style="fill:#ddfcff;fill-opacity:1;stroke-width:0.68886"
       d="m 319.95289,72.147907 c -7.96664,-1.103982 -15.19038,-4.696004 -20.87402,-10.379634 -6.90337,-6.903374 -10.64063,-15.901015 -10.65358,-25.649031 -0.0108,-8.100751 2.52534,-15.630658 7.49612,-22.256704 1.57569,-2.100388 30.74684,-31.255815 32.68272,-32.665113 6.83681,-4.977072 13.7696,-7.271928 21.9686,-7.271928 8.38627,0 14.73122,2.147825 22.37485,7.574104 0.42729,0.303346 1.59053,1.345089 2.58497,2.314991 2.07701,2.025766 2.92079,3.492385 3.30063,5.736983 0.64779,3.828067 -1.48759,7.8980891 -4.99373,9.51802587 -3.57096,1.64988276 -7.34063,1.03509549 -10.32618,-1.68407657 -3.12254,-2.8439399 -6.21418,-4.4255774 -9.92852,-5.0792717 -4.80649,-0.8459069 -9.94406,0.4183382 -13.97636,3.4392739 -1.9093,1.4304258 -28.87403,28.5199625 -29.86118,29.9994075 -5.45472,8.174969 -3.66149,19.05116 4.09993,24.866713 2.7394,2.052598 6.02173,3.307929 9.29531,3.554989 4.41856,0.333477 8.41388,-0.69236 11.95976,-3.070782 0.69941,-0.469134 4.25095,-3.839288 8.90913,-8.454109 8.31665,-8.239233 8.40572,-8.312204 10.94094,-8.963122 1.38981,-0.356837 3.45128,-0.263152 4.94253,0.224617 0.52476,0.171636 1.56894,0.728098 2.32042,1.23658 3.63967,2.462766 4.86485,7.282468 2.89905,11.404526 -0.50763,1.064428 -1.38082,2.000575 -8.60127,9.221321 -4.59135,4.591551 -8.67591,8.517333 -9.52841,9.158035 -5.23589,3.935047 -11.18147,6.388431 -17.51791,7.2286 -2.48619,0.329647 -7.11869,0.327511 -9.5138,-0.0041 z m 47.2056,-44.843703 c -0.25061,-0.04319 -1.19381,-0.166305 -2.096,-0.273574 -6.03895,-0.718013 -11.43469,-2.963381 -17.54492,-7.301081 -0.4273,-0.303339 -1.59054,-1.345089 -2.58497,-2.314984 -2.07702,-2.025774 -2.9208,-3.492392 -3.30063,-5.736987 -0.6478,-3.8280575 1.48758,-7.8980866 4.99372,-9.5180247 3.57097,-1.64988277 7.34063,-1.0350955 10.32618,1.6840779 3.12254,2.8439467 6.21418,4.425577 9.92852,5.0792707 4.80649,0.8459064 9.94407,-0.418331 13.97637,-3.4392729 1.9093,-1.4304188 28.87402,-28.519968 29.86118,-29.999406 1.76511,-2.645376 2.83524,-5.675618 3.06501,-8.679056 0.26692,-3.489092 -0.26639,-6.513996 -1.66626,-9.451001 -2.79193,-5.857587 -8.48087,-9.815187 -14.794,-10.291651 -4.41855,-0.333477 -8.41388,0.692367 -11.95976,3.070788 -0.6994,0.469128 -4.25095,3.839288 -8.90913,8.45411 -8.31664,8.239226 -8.40572,8.312203 -10.94093,8.963121 -1.38982,0.35683 -3.45128,0.263151 -4.94254,-0.224617 -0.52475,-0.171636 -1.56894,-0.728104 -2.32042,-1.236586 -3.63967,-2.462766 -4.86485,-7.282468 -2.89904,-11.404527 0.50762,-1.06442 1.38082,-2.000568 8.60126,-9.221314 4.59136,-4.591552 8.67591,-8.517339 9.52841,-9.158036 6.60873,-4.966804 14.15445,-7.508912 22.2567,-7.498152 9.74802,0.01295 18.74566,3.750208 25.64903,10.653579 6.90337,6.903372 10.64064,15.901018 10.65358,25.649035 0.0108,8.100743 -2.52533,15.63065 -7.49612,22.256696 -1.57568,2.100392 -30.74683,31.255815 -32.68272,32.665113 -5.14284,3.743895 -10.4364,5.975692 -16.41642,6.921243 -1.74651,0.276157 -7.34492,0.513463 -8.2861,0.351236 z"
       id="path1-2" /></g></svg>
