<?xml version="1.0" encoding="UTF-8" standalone="no"?>
<!-- Created with Inkscape (http://www.inkscape.org/) -->

<svg
   width="119.07171mm"
   height="135.44054mm"
   viewBox="0 0 119.07171 135.44054"
   version="1.1"
   id="svg1"
   xml:space="preserve"
   xmlns="http://www.w3.org/2000/svg"
   xmlns:svg="http://www.w3.org/2000/svg"><defs
     id="defs1" /><g
     id="layer1"
     transform="translate(-277.80222,-236.47694)"><path
       style="fill:#ffdddd;fill-opacity:1"
       d="m 301.94942,371.57746 c -3.9187,-1.06192 -7.02181,-3.92876 -8.24808,-7.62008 -0.45394,-1.36645 -1.054,-7.81571 -3.71769,-39.95618 -1.747,-21.07969 -3.17637,-38.55211 -3.17637,-38.8276 0,-0.48971 1.12745,-0.50089 50.53541,-0.50089 48.6167,0 50.53541,0.0182 50.53541,0.47957 0,0.26376 -1.4248,17.6811 -3.16623,38.7052 -2.60891,31.4972 -3.26141,38.5338 -3.70699,39.97641 -1.02129,3.30656 -3.58655,5.96464 -7.17344,7.43303 l -1.43146,0.586 -34.52812,0.0512 c -29.20727,0.0433 -34.74299,-0.007 -35.92244,-0.32665 z m 14.01449,-16.29836 c 1.60742,-1.14459 1.53507,0.3159 1.53462,-30.97654 -3.8e-4,-26.75288 -0.031,-28.7097 -0.46302,-29.55687 -0.7351,-1.44162 -1.71416,-2.00453 -3.46965,-1.99486 -1.79077,0.01 -3.05956,0.75603 -3.63748,2.13918 -0.54637,1.30764 -0.54637,57.63276 0,58.94041 0.37349,0.89389 1.45556,1.83594 2.41119,2.09919 0.95555,0.26323 2.80806,-0.0693 3.62434,-0.65051 z m 23.81249,0 c 1.60743,-1.14459 1.53508,0.3159 1.53463,-30.97654 -3.9e-4,-26.75288 -0.031,-28.7097 -0.46302,-29.55687 -0.7351,-1.44162 -1.71416,-2.00453 -3.46965,-1.99486 -1.79077,0.01 -3.05957,0.75603 -3.63748,2.13918 -0.54637,1.30764 -0.54637,57.63276 0,58.94041 0.37349,0.89389 1.45556,1.83594 2.41118,2.09919 0.95556,0.26323 2.80806,-0.0693 3.62434,-0.65051 z m 23.8125,0 c 1.60731,-1.1445 1.53504,0.31205 1.53504,-30.93655 0,-31.65287 0.10442,-29.73264 -1.68627,-31.00994 -1.15459,-0.82358 -3.41037,-0.82358 -4.56497,0 -1.79068,1.2773 -1.68626,-0.64293 -1.68626,31.00994 0,23.79494 0.0617,28.75745 0.36694,29.48787 0.37349,0.89389 1.45556,1.83594 2.41118,2.09919 0.95556,0.26323 2.80806,-0.0693 3.62434,-0.65051 z m -82.79427,-79.32995 c -1.28042,-0.30421 -2.19021,-1.00324 -2.60841,-2.00414 -0.46603,-1.11536 -0.52546,-9.95787 -0.0812,-12.07958 0.6671,-3.18587 3.15488,-6.53911 5.88457,-7.93169 2.819,-1.43815 2.29792,-1.38903 16.28851,-1.53556 l 13.07396,-0.13692 1.37127,-4.10104 c 1.68778,-5.0476 2.19734,-6.06043 3.99967,-7.94999 1.63266,-1.71167 3.3079,-2.70678 5.53206,-3.2861 2.26677,-0.59042 23.87682,-0.59866 26.13698,-0.01 2.17807,0.56732 3.52084,1.325 5.21937,2.94513 1.93352,1.84426 2.6521,3.21188 4.33545,8.25136 l 1.38644,4.15061 13.07396,0.14316 c 8.65555,0.0948 13.36051,0.24385 13.92186,0.44111 4.23797,1.48923 7.377,4.92241 8.24708,9.0199 0.16375,0.77114 0.29773,3.56129 0.29773,6.20031 0,4.30414 -0.0561,4.91418 -0.54507,5.9242 -0.39574,0.81749 -0.85355,1.2753 -1.67104,1.67104 l -1.12596,0.54507 -55.94199,-0.0271 c -30.76809,-0.0149 -56.32595,-0.11831 -56.79525,-0.22981 z m 72.09334,-23.88633 c -0.067,-0.1819 -0.50417,-1.48539 -0.97157,-2.89664 -0.95351,-2.87892 -1.56359,-3.81381 -2.83568,-4.34532 -1.277,-0.53356 -22.19906,-0.53356 -23.47606,0 -1.27209,0.53151 -1.88217,1.4664 -2.83568,4.34532 -0.4674,1.41125 -0.90461,2.71474 -0.97157,2.89664 -0.0965,0.26223 3.12311,0.33073 15.54528,0.33073 12.42217,0 15.64182,-0.0685 15.54528,-0.33073 z"
       id="path6" /></g></svg>
