<?xml version="1.0" encoding="UTF-8" standalone="no"?>
<!-- Created with Inkscape (http://www.inkscape.org/) -->

<svg
   width="135.49335mm"
   height="80.548164mm"
   viewBox="0 0 135.49335 80.548164"
   version="1.1"
   id="svg1"
   xml:space="preserve"
   xmlns="http://www.w3.org/2000/svg"
   xmlns:svg="http://www.w3.org/2000/svg"><defs
     id="defs1" /><g
     id="layer1"
     transform="translate(-282.91008,-109.61483)"><path
       style="fill:#d8ffdf;fill-opacity:1"
       d="m 348.54009,190.12976 c -23.56661,-0.72473 -46.02631,-13.34703 -63.3677,-35.61248 -3.23923,-4.15901 -3.10293,-5.51379 1.07717,-10.70646 16.00358,-19.88021 35.87344,-31.68817 57.06101,-33.90935 3.64558,-0.38218 11.04679,-0.38218 14.69238,0 21.61149,2.26562 42.13046,14.71183 58.13818,35.26491 3.23923,4.15901 3.10292,5.51379 -1.07718,10.70646 -18.42268,22.88532 -41.97154,35.01197 -66.52386,34.25692 z m 7.65042,-12.36966 c 11.3659,-2.39089 19.81462,-10.84395 22.42317,-22.4347 0.64144,-2.85016 0.5787,-8.37663 -0.13073,-11.51505 -2.37466,-10.50524 -10.40608,-18.88062 -20.62317,-21.50639 -9.89689,-2.54349 -20.08548,0.23574 -27.29531,7.44558 -10.55228,10.55227 -11.2102,27.1919 -1.52547,38.58097 6.59937,7.76075 17.34464,11.49253 27.15151,9.42959 z m -8.6897,-12.98333 c -3.00782,-0.65229 -5.43358,-2.00999 -7.67572,-4.29612 -2.31862,-2.3641 -3.46312,-4.46978 -4.09672,-7.5372 -0.51484,-2.49253 -0.51886,-3.76541 -0.0194,-6.14432 1.13532,-5.40751 5.16529,-9.79748 10.71445,-11.67158 2.23099,-0.75347 6.42997,-0.68974 8.95021,0.13583 4.63476,1.51824 8.34334,5.22682 9.86157,9.86157 0.82558,2.52025 0.8893,6.71923 0.13584,8.95022 -1.87411,5.54916 -6.26408,9.57914 -11.67158,10.71446 -2.26251,0.47502 -3.96524,0.47149 -6.19865,-0.0129 z"
       id="path5" /></g></svg>
